HIERARCHY
ROOT Hips
{
    OFFSET 0.000000 0.000000 0.000000
    CHANNELS 6 Xposition Yposition Zposition Zrotation Xrotation Yrotation
    JOINT Spine
    {
        OFFSET -0.000000 7.948960 0.000000
        CHANNELS 3 Zrotation Xrotation Yrotation
        JOINT Spine1
        {
            OFFSET -0.000000 20.242701 0.000000
            CHANNELS 3 Zrotation Xrotation Yrotation
            JOINT Neck
            {
                OFFSET -0.000000 22.181501 0.000000
                CHANNELS 3 Zrotation Xrotation Yrotation
                JOINT Head
                {
                    OFFSET -0.000000 15.025499 1.938770
                    CHANNELS 3 Zrotation Xrotation Yrotation
                    End Site
                    {
                        OFFSET -0.000000 19.387667 0.000000
                    }
                }
            }
            JOINT LeftShoulder
            {
                OFFSET 3.956620 17.711000 0.144298
                CHANNELS 3 Zrotation Xrotation Yrotation
                JOINT LeftArm
                {
                    OFFSET 13.548300 0.000000 0.000000
                    CHANNELS 3 Zrotation Xrotation Yrotation
                    JOINT LeftForeArm
                    {
                        OFFSET 29.681900 0.000000 0.000000
                        CHANNELS 3 Zrotation Xrotation Yrotation
                        JOINT LeftHand
                        {
                            OFFSET 26.733898 0.000000 0.000000
                            CHANNELS 3 Zrotation Xrotation Yrotation
                            End Site
                            {
                                OFFSET 14.540751 0.000000 0.000000
                            }
                        }
                    }
                }
            }
            JOINT RightShoulder
            {
                OFFSET -3.794510 17.711000 0.144298
                CHANNELS 3 Zrotation Xrotation Yrotation
                JOINT RightArm
                {
                    OFFSET -13.548300 0.000000 0.000000
                    CHANNELS 3 Zrotation Xrotation Yrotation
                    JOINT RightForeArm
                    {
                        OFFSET -29.681900 0.000000 0.000000
                        CHANNELS 3 Zrotation Xrotation Yrotation
                        JOINT RightHand
                        {
                            OFFSET -26.733898 0.000000 0.000000
                            CHANNELS 3 Zrotation Xrotation Yrotation
                            End Site
                            {
                                OFFSET -14.540751 0.000000 0.000000
                            }
                        }
                    }
                }
            }
        }
    }
    JOINT LeftUpLeg
    {
        OFFSET 9.693850 0.000000 0.000000
        CHANNELS 3 Zrotation Xrotation Yrotation
        JOINT LeftLeg
        {
            OFFSET -0.000000 -57.882603 0.000000
            CHANNELS 3 Zrotation Xrotation Yrotation
            JOINT LeftFoot
            {
                OFFSET -0.000000 -37.133801 0.000000
                CHANNELS 3 Zrotation Xrotation Yrotation
                JOINT LeftToeBase
                {
                    OFFSET -0.000000 -6.301010 14.540800
                    CHANNELS 3 Zrotation Xrotation Yrotation
                    End Site
                    {
                        OFFSET -0.000000 0.000000 3.877533
                    }
                }
            }
        }
    }
    JOINT RightUpLeg
    {
        OFFSET -9.693850 0.000000 0.000000
        CHANNELS 3 Zrotation Xrotation Yrotation
        JOINT RightLeg
        {
            OFFSET -0.000000 -57.882603 0.000000
            CHANNELS 3 Zrotation Xrotation Yrotation
            JOINT RightFoot
            {
                OFFSET -0.000000 -37.133801 0.000000
                CHANNELS 3 Zrotation Xrotation Yrotation
                JOINT RightToeBase
                {
                    OFFSET -0.000000 -6.301010 14.540800
                    CHANNELS 3 Zrotation Xrotation Yrotation
                    End Site
                    {
                        OFFSET -0.000000 0.000000 3.877533
                    }
                }
            }
        }
    }
}
MOTION
Frames:    5
Frame Time:    0.033333
29.675085    145.458389    26.809719    -3.950872    0.202530    157.346146    -2.756395    1.503470    0.380557    1.567520    2.659826    0.078984    -3.910058    -0.354301    9.744452    0.147388    -3.861614    9.545790    17.207037    5.800679    0.233939    -22.648829    -5.701761    4.024579    3.092335    0.076044    1.490361    2.863781    -28.422329    -3.666192    -11.738194    3.762128    -2.482945    12.144239    -2.462491    -5.878966    -8.713184    0.141502    5.233529    -8.264725    -33.450809    -4.854648    -3.728571    -7.797665    -1.948828    -3.399992    19.216454    5.066929    6.627157    -12.926547    21.768791    0.000000    0.000000    0.000000    -6.223475    -3.534948    5.895048    3.464929    2.238935    -1.040589    -3.678172    2.463903    -13.354995    0.000000    0.000000    0.000000    
29.752487    145.485550    26.835037    -3.916540    0.385998    157.424149    -2.768415    1.719576    0.374650    1.578934    2.416042    0.078047    -3.956656    0.029178    9.744286    0.123888    -3.982306    9.528460    17.314411    5.836794    0.221854    -22.363319    -5.604854    3.909759    3.345316    0.086402    1.579996    2.503784    -28.044292    -3.399696    -11.821824    3.766332    -2.610536    11.808487    -2.364931    -5.526686    -8.703637    0.158748    4.760783    -8.351216    -33.705395    -5.191476    -3.724294    -7.713520    -1.729312    -3.341643    19.453480    4.709953    6.668939    -12.767397    21.995401    0.000000    0.000000    0.000000    -6.213972    -3.434736    5.754365    3.494359    2.486992    -0.948134    -3.703767    2.428996    -13.433456    0.000000    0.000000    0.000000    
29.822842    145.507614    26.861507    -3.892990    0.531098    157.490173    -2.778851    1.907351    0.369281    1.589075    2.204032    0.077588    -4.007080    0.300447    9.732851    0.110161    -4.070566    9.501666    17.387550    5.861315    0.218807    -22.125341    -5.515542    3.757518    3.708046    0.101012    1.574469    2.087756    -27.886131    -3.189688    -11.886435    3.771582    -2.700455    11.518092    -2.281718    -5.213123    -8.739910    0.169277    4.452295    -8.532385    -33.902622    -5.508086    -3.693321    -7.673891    -1.498284    -3.343272    19.699776    4.389536    6.713104    -12.648533    22.207733    0.000000    0.000000    0.000000    -6.220074    -3.387811    5.618099    3.566618    2.756639    -0.805224    -3.744733    2.371781    -13.558163    0.000000    0.000000    0.000000    
29.885027    145.522278    26.887093    -3.877901    0.641584    157.546844    -2.789635    2.078919    0.361447    1.603575    2.012646    0.076159    -4.067864    0.471025    9.716633    0.107330    -4.130014    9.470823    17.431437    5.875941    0.223874    -21.920149    -5.431983    3.585084    4.157277    0.118507    1.503192    1.643425    -27.907368    -2.997644    -11.934094    3.776607    -2.761778    11.269239    -2.211307    -4.941683    -8.843388    0.174634    4.283506    -8.781688    -34.091537    -5.823262    -3.658562    -7.681786    -1.268472    -3.352943    19.975933    4.087730    6.761777    -12.557343    22.419394    0.000000    0.000000    0.000000    -6.218505    -3.394042    5.484814    3.622217    3.066229    -0.697614    -3.779124    2.271358    -13.641764    0.000000    0.000000    0.000000    
29.939005    145.529846    26.912308    -3.869024    0.715696    157.592682    -2.802041    2.240406    0.350579    1.626633    1.836100    0.072991    -4.138508    0.547532    9.701687    0.119567    -4.158641    9.441771    17.449760    5.881944    0.234556    -21.755680    -5.358480    3.409508    4.664076    0.137267    1.389257    1.226994    -28.096638    -2.797517    -11.961761    3.778656    -2.801495    11.075765    -2.155738    -4.708301    -9.015230    0.176368    4.218107    -9.065400    -34.310226    -6.148947    -3.619941    -7.736722    -1.060610    -3.371540    20.276567    3.811833    6.815111    -12.486444    22.634827    0.000000    0.000000    0.000000    -6.219541    -3.446818    5.356221    3.690856    3.394471    -0.566609    -3.819920    2.146398    -13.738005    0.000000    0.000000    0.000000    
